<svg xmlns="http://www.w3.org/2000/svg" width="39" height="39" viewBox="0 0 39 39" fill="none">
  <path d="M38.854 19.4993C38.854 15.6715 37.7189 11.9296 35.5923 8.7469C33.4657 5.56419 30.443 3.08357 26.9066 1.61873C23.3702 0.153894 19.4788 -0.229375 15.7245 0.517393C11.9703 1.26416 8.52174 3.10743 5.81507 5.8141C3.1084 8.52077 1.26514 11.9693 0.51837 15.7235C-0.228399 19.4778 0.15487 23.3692 1.61971 26.9056C3.08455 30.4421 5.56517 33.4647 8.74787 35.5913C11.9306 37.7179 15.6724 38.853 19.5002 38.853C24.6332 38.853 29.5559 36.814 33.1854 33.1844C36.8149 29.5549 38.854 24.6322 38.854 19.4993Z" fill="black"/>
  <path fill-rule="evenodd" clip-rule="evenodd" d="M0 19.5C0 15.6433 1.14365 11.8731 3.28634 8.66639C5.42903 5.45963 8.47451 2.96027 12.0377 1.48436C15.6008 0.00844904 19.5216 -0.377716 23.3043 0.374696C27.0869 1.12711 30.5614 2.9843 33.2886 5.71142C36.0157 8.43855 37.8729 11.9131 38.6253 15.6957C39.3777 19.4784 38.9916 23.3992 37.5156 26.9623C36.0397 30.5255 33.5404 33.571 30.3336 35.7137C27.1269 37.8563 23.3567 39 19.5 39C14.3283 39 9.36837 36.9455 5.71142 33.2886C2.05446 29.6316 0 24.6717 0 19.5H0ZM19.5 1.58926C15.9576 1.58926 12.4947 2.6397 9.54932 4.60776C6.60391 6.57582 4.30825 9.3731 2.95262 12.6459C1.597 15.9186 1.24231 19.5199 1.9334 22.9942C2.62449 26.4686 4.33032 29.6599 6.83519 32.1648C9.34005 34.6697 12.5314 36.3755 16.0058 37.0666C19.4801 37.7577 23.0814 37.403 26.3541 36.0474C29.6269 34.6918 32.4242 32.3961 34.3922 29.4507C36.3603 26.5053 37.4107 23.0424 37.4107 19.5C37.4082 14.7506 35.5203 10.1964 32.1619 6.83805C28.8036 3.47969 24.2494 1.59184 19.5 1.58926Z" fill="#FF631A"/>
  <path d="M20.5525 28.6069C22.2813 28.6242 23.9782 28.1422 25.4397 27.2186C26.9011 26.295 28.0649 24.9692 28.7913 23.4004C27.8539 23.8078 26.8394 24.0074 25.8175 23.9854C23.8996 23.9828 22.061 23.2198 20.7048 21.8636C19.3486 20.5074 18.5856 18.6688 18.583 16.7509C18.6006 15.4235 18.9707 14.1247 19.6555 12.9874C20.3375 11.8463 21.3142 10.9101 22.483 10.2769C21.8369 10.1884 21.1851 10.1493 20.533 10.1599C18.14 10.2377 15.871 11.2431 14.2057 12.9634C12.5404 14.6837 11.6094 16.9842 11.6094 19.3785C11.6094 21.7728 12.5404 24.0733 14.2057 25.7936C15.871 27.514 18.14 28.5193 20.533 28.5971L20.5525 28.6069Z" fill="#D7F1E1"/>
  <path d="M28.2055 13.699C28.3983 13.699 28.5868 13.6418 28.7471 13.5347C28.9075 13.4276 29.0325 13.2753 29.1063 13.0971C29.18 12.919 29.1994 12.7229 29.1617 12.5338C29.1241 12.3447 29.0313 12.171 28.8949 12.0346C28.7585 11.8982 28.5848 11.8054 28.3957 11.7678C28.2065 11.7301 28.0105 11.7494 27.8324 11.8232C27.6542 11.897 27.5019 12.022 27.3948 12.1823C27.2877 12.3427 27.2305 12.5312 27.2305 12.724C27.2305 12.9826 27.3332 13.2306 27.516 13.4135C27.6989 13.5963 27.9469 13.699 28.2055 13.699Z" fill="white"/>
  <path d="M24.3746 22.0838C24.441 22.0857 24.5064 22.0676 24.5624 22.032C24.6184 21.9963 24.6623 21.9446 24.6886 21.8837C24.7149 21.8227 24.7223 21.7553 24.7098 21.6901C24.6973 21.6249 24.6656 21.5649 24.6186 21.518C24.5717 21.4711 24.5117 21.4393 24.4465 21.4268C24.3813 21.4143 24.3139 21.4217 24.2529 21.448C24.192 21.4743 24.1403 21.5183 24.1047 21.5743C24.069 21.6302 24.0509 21.6957 24.0529 21.762C24.0529 21.8473 24.0868 21.9292 24.1471 21.9895C24.2075 22.0499 24.2893 22.0838 24.3746 22.0838Z" fill="white"/>
  <path d="M22.4253 15.6005C22.5106 15.6005 22.5924 15.5666 22.6528 15.5063C22.7131 15.446 22.747 15.3641 22.747 15.2788C22.747 15.1934 22.7131 15.1116 22.6528 15.0513C22.5924 14.9909 22.5106 14.957 22.4253 14.957C22.3399 14.957 22.2581 14.9909 22.1978 15.0513C22.1374 15.1116 22.1035 15.1934 22.1035 15.2788C22.1035 15.3641 22.1374 15.446 22.1978 15.5063C22.2581 15.5666 22.3399 15.6005 22.4253 15.6005Z" fill="white"/>
  <path d="M32.0796 20.1435C32.1432 20.1435 32.2054 20.1246 32.2583 20.0893C32.3112 20.0539 32.3525 20.0037 32.3768 19.9449C32.4012 19.8861 32.4075 19.8214 32.3951 19.759C32.3827 19.6966 32.3521 19.6392 32.3071 19.5942C32.2621 19.5492 32.2047 19.5186 32.1423 19.5062C32.0799 19.4938 32.0152 19.5001 31.9564 19.5245C31.8976 19.5488 31.8474 19.5901 31.812 19.643C31.7767 19.6959 31.7578 19.7581 31.7578 19.8217C31.7578 19.9071 31.7917 19.9889 31.8521 20.0493C31.9124 20.1096 31.9942 20.1435 32.0796 20.1435Z" fill="white"/>
</svg>