<?xml version="1.0" standalone="no"?>
<!DOCTYPE svg PUBLIC "-//W3C//DTD SVG 20010904//EN"
 "http://www.w3.org/TR/2001/REC-SVG-20010904/DTD/svg10.dtd">
<svg version="1.0" xmlns="http://www.w3.org/2000/svg"
 width="300.000000pt" height="300.000000pt" viewBox="0 0 300.000000 300.000000"
 preserveAspectRatio="xMidYMid meet">
<metadata>
Created by potrace 1.14, written by Peter Selinger 2001-2017
</metadata>
<g transform="translate(0.000000,300.000000) scale(0.100000,-0.100000)"
fill="#000000" stroke="none">
<path d="M1350 2893 c-320 -28 -613 -162 -833 -379 -227 -223 -379 -537 -401
-828 -4 -44 -18 -56 -55 -49 -52 10 -56 9 -54 -17 1 -14 4 -95 6 -180 7 -219
38 -328 112 -387 19 -15 47 -30 62 -33 23 -4 35 -19 66 -80 154 -305 431 -548
751 -660 114 -40 169 -54 250 -64 51 -7 81 -28 102 -71 l16 -35 229 0 c256 0
246 -3 209 70 -11 22 -20 43 -20 48 0 5 43 24 97 42 53 18 108 39 122 46 31
16 40 5 36 -44 -1 -18 0 -34 4 -36 4 -3 25 7 47 22 23 15 90 56 149 92 156 93
165 104 165 183 0 59 2 66 32 94 18 16 42 42 53 57 11 16 25 33 31 40 76 82
196 325 233 472 18 69 46 86 150 92 50 2 91 6 91 8 0 1 -5 15 -12 31 -6 15
-13 42 -15 58 -6 49 -9 52 -77 75 -35 11 -70 28 -77 36 -8 10 -14 52 -15 112
-6 233 -90 489 -232 703 -86 129 -291 324 -412 390 -115 64 -148 80 -204 102
-187 75 -407 108 -606 90z"/>
</g>
</svg>
