<svg viewBox="0 0 30 30" fill="none" xmlns="http://www.w3.org/2000/svg">
	<path fill-rule="evenodd" clip-rule="evenodd" d="M10.8956 0.505198C11.2091 0.818744 11.3023 1.29057 11.1316 1.69979C10.4835 3.25296 10.125 4.95832 10.125 6.75018C10.125 13.9989 16.0013 19.8752 23.25 19.8752C25.0419 19.8752 26.7472 19.5167 28.3004 18.8686C28.7096 18.6979 29.1814 18.7911 29.495 19.1046C29.8085 19.4182 29.9017 19.89 29.731 20.2992C27.4235 25.8291 21.9642 29.7189 15.5938 29.7189C7.13689 29.7189 0.28125 22.8633 0.28125 14.4064C0.28125 8.036 4.17113 2.57666 9.70097 0.269199C10.1102 0.098441 10.582 0.191653 10.8956 0.505198Z" fill="currentColor"/>
</svg>