<svg width="79" height="29" viewBox="0 0 79 29" fill="none" xmlns="http://www.w3.org/2000/svg">
<g filter="url(#filter0_dd_11_621)">
<rect x="3" y="2" width="51.8797" height="23.5188" rx="11.7594" fill="#F29F05"/>
<g filter="url(#filter1_d_11_621)">
<circle cx="15.5" cy="13.5" r="9.5" fill="white"/>
</g>
</g>
<path d="M78.9734 19.8815C78.9734 21.471 74.6993 22.7594 69.4265 22.7594C64.1538 22.7594 59.8797 21.471 59.8797 19.8815C59.8797 19.8331 59.8838 19.785 59.8916 19.7372C60.1419 21.2595 64.3153 22.4704 69.4265 22.4704C74.5378 22.4704 78.7112 21.2595 78.9615 19.7372C78.9693 19.785 78.9734 19.8331 78.9734 19.8815Z" fill="#404350"/>
<path d="M78.9734 19.5925C78.9734 19.641 78.9693 19.6895 78.9615 19.7372C78.7112 21.2595 74.5382 22.4704 69.4265 22.4704C64.3149 22.4704 60.1419 21.2595 59.8916 19.7372C59.8838 19.6895 59.8797 19.641 59.8797 19.5925C59.8797 18.0031 64.1542 16.7147 69.4265 16.7147C74.6989 16.7147 78.9734 18.0031 78.9734 19.5925Z" fill="#575B6C"/>
<path d="M72.3826 10.8012C72.3774 10.7915 72.3718 10.7803 72.3651 10.7688C72.3703 10.7774 72.3767 10.7882 72.3826 10.8012Z" fill="#575A6C"/>
<path d="M76.1704 7.54598C76.1059 7.60155 76.0392 7.56985 75.9761 7.55418C75.0696 7.33192 74.1492 7.26815 73.2191 7.31328C73.1602 7.31589 73.1065 7.32894 73.0431 7.34647C72.9607 7.36959 72.6799 7.45946 72.2241 8.04532C72.2241 8.04532 71.8464 8.53162 71.7024 9.02723C71.68 9.10443 71.6536 9.21481 71.6845 9.34534C71.7233 9.50718 71.8303 9.61235 71.8885 9.6612C71.4996 9.74772 71.1259 9.87601 70.7753 10.0681C70.7578 10.0778 70.7407 10.0875 70.7239 10.0972C70.7067 10.1068 70.6899 10.1169 70.6732 10.127C70.257 10.3787 70.1376 10.6151 70.1 10.6886C70.0645 10.7572 70.0392 10.8229 70.0205 10.8818C70.0034 10.9359 69.9922 10.9843 69.9844 11.025C70.0451 10.9832 70.141 10.9221 70.2652 10.862C70.7794 10.6129 71.2855 10.6241 71.5995 10.6539C71.6081 10.6547 71.617 10.6558 71.6256 10.6565C71.6513 10.6591 71.6756 10.6618 71.6983 10.6644C71.7058 10.6651 71.7132 10.6662 71.7203 10.667C71.7278 10.6677 71.7349 10.6688 71.7416 10.6696C71.8993 10.6886 72.1246 10.7281 72.3897 10.8169C72.3983 10.8359 72.4065 10.859 72.414 10.887C72.4233 10.9142 72.4289 10.9429 72.4363 10.9705C72.9155 12.7173 73.3936 14.4641 73.8717 16.2112C73.9079 16.3429 73.9437 16.4745 73.9799 16.6062C73.9881 16.6367 73.9944 16.6677 74.0015 16.6986C74.0026 16.7039 74.0041 16.7095 74.0052 16.7147C74.003 16.7169 74.0011 16.7195 73.9989 16.7218L73.9948 16.7039C73.7483 16.8978 73.4608 17.0917 73.13 17.267C72.8432 17.4188 72.5642 17.5362 72.2883 17.6276H72.2879C72.2749 17.6321 72.2614 17.6365 72.2484 17.6406C71.8158 17.7801 71.3918 17.8581 70.9652 17.901C70.9614 17.9013 70.9577 17.9017 70.954 17.9021V17.8752C70.9543 17.8156 70.942 17.7574 70.9197 17.7048C70.8865 17.6261 70.8313 17.5601 70.7615 17.5131C70.6925 17.4657 70.6068 17.4382 70.5173 17.4382H68.3659C68.3062 17.4382 68.248 17.4505 68.1958 17.4728C68.1168 17.506 68.0508 17.5612 68.0038 17.6306C67.9568 17.6999 67.9288 17.7857 67.9288 17.8752V17.8961C67.7431 17.8763 67.5589 17.8491 67.3735 17.8122C67.347 17.807 67.3202 17.8014 67.2937 17.7954C67.2922 17.7954 67.2907 17.795 67.2896 17.7947C67.2896 17.7947 67.2894 17.7945 67.2889 17.7943C66.9242 17.716 66.5535 17.5981 66.1567 17.4139C65.5854 17.1484 65.1319 16.8228 64.7903 16.5275C64.8209 16.3336 64.8518 16.1396 64.8831 15.9457L64.9078 15.7977C65.2658 13.6246 65.7054 11.4699 66.4088 9.3748C66.6523 8.64946 66.9387 7.94202 67.3359 7.28344C67.5178 6.98175 67.7375 6.71436 68.0299 6.51447C68.9827 5.8626 69.9847 5.30583 71.0979 4.97504C71.5462 4.84191 72.0075 4.77628 72.4751 4.76024C72.7436 4.75092 72.9924 4.81916 73.2187 4.96423C73.9094 5.40652 74.5549 5.90213 75.1542 6.45219C75.4164 6.69236 75.8195 6.9094 76.097 7.4039C76.1298 7.46282 76.1544 7.51242 76.1704 7.54598Z" fill="#575A6C"/>
<path d="M72.3897 10.8169C72.1245 10.7281 71.8993 10.6886 71.7415 10.6696C71.7348 10.6688 71.7277 10.6677 71.7203 10.667C71.7132 10.6662 71.7057 10.6651 71.6983 10.6644C71.674 10.661 71.6494 10.6584 71.6256 10.6565C71.617 10.6558 71.608 10.6547 71.5994 10.6539C71.2854 10.6241 70.7794 10.6129 70.2651 10.862C70.1409 10.922 70.0451 10.9832 69.9843 11.025C69.9921 10.9843 70.0033 10.9358 70.0205 10.8818C70.0391 10.8229 70.0645 10.7572 70.0999 10.6886C70.1376 10.6151 70.2569 10.3787 70.6731 10.127C70.6899 10.1169 70.7067 10.1068 70.7238 10.0971C70.7406 10.0874 70.7578 10.0777 70.7753 10.0681C71.1258 9.876 71.4995 9.74771 71.8885 9.66119C71.8885 9.66157 71.8888 9.66157 71.8888 9.66194C71.8952 9.67126 71.9041 9.68618 71.909 9.70632C71.9142 9.72757 71.9134 9.74734 71.9101 9.76375C71.9082 9.77494 71.9049 9.78426 71.9023 9.79209C71.8743 9.87227 71.8135 9.94462 71.7747 10.0144C71.7445 10.0692 71.6975 10.1542 71.7162 10.2389C71.7203 10.2579 71.7356 10.3123 71.8799 10.4141C71.8829 10.4164 71.8859 10.4182 71.8888 10.4205C72.069 10.5454 72.1641 10.5428 72.2756 10.6532C72.3147 10.692 72.3431 10.7322 72.3632 10.7662C72.3639 10.7669 72.3643 10.768 72.3651 10.7688C72.3718 10.7803 72.3774 10.7915 72.3826 10.8012C72.3845 10.805 72.3863 10.8087 72.3878 10.8124C72.3886 10.8139 72.3893 10.8154 72.3897 10.8169Z" fill="#404350"/>
<path d="M71.6983 10.6644C71.674 10.661 71.6494 10.6584 71.6255 10.6565C71.6513 10.6592 71.6755 10.6618 71.6983 10.6644Z" fill="#404350"/>
<path d="M72.3901 10.817H72.3897C72.3897 10.817 72.3886 10.8139 72.3878 10.8124C72.3886 10.8139 72.3893 10.8155 72.3901 10.817Z" fill="#404350"/>
<path d="M74.4207 18.4118C74.2574 18.5166 74.0832 18.6188 73.8982 18.7169C73.5119 18.922 73.1285 19.0805 72.7534 19.2017C72.3778 19.3233 72.0105 19.4072 71.6547 19.465C70.9428 19.5806 70.279 19.5922 69.676 19.5925C69.5757 19.5925 69.4772 19.5922 69.3803 19.5918C68.9525 19.5903 68.5058 19.5892 68.0325 19.553C67.5597 19.5168 67.0603 19.4445 66.5379 19.2987C66.1899 19.2017 65.8319 19.0723 65.4653 18.9019C65.0995 18.7318 64.7721 18.5435 64.4823 18.3507L64.7866 16.5241C64.7866 16.5241 64.7888 16.5263 64.7903 16.5275C65.1319 16.8228 65.5854 17.1484 66.1567 17.4139C66.5535 17.5981 66.9242 17.716 67.2889 17.7943C67.2889 17.7943 67.2892 17.7944 67.2897 17.7947C67.2897 17.7947 67.2923 17.7954 67.2938 17.7954C67.3202 17.8014 67.3471 17.807 67.3736 17.8122C67.7655 17.8905 68.1534 17.9244 68.5569 17.939C68.8257 17.9487 69.101 17.9498 69.3862 17.9509C69.4832 17.9513 69.5798 17.9517 69.676 17.9517C70.1105 17.9517 70.539 17.9442 70.9652 17.9009C71.3918 17.8581 71.8158 17.7801 72.2484 17.6406C72.2615 17.6365 72.2749 17.6321 72.288 17.6276H72.2883C72.5643 17.5362 72.8432 17.4188 73.13 17.267C73.4608 17.0917 73.7483 16.8978 73.9948 16.7039L73.9989 16.7218L74.4207 18.4118Z" fill="#ED5261"/>
<path d="M74.0053 16.7147C74.003 16.7169 74.0012 16.7195 73.9989 16.7218L73.9948 16.7039C73.997 16.7024 73.9993 16.7005 74.0015 16.6986C74.0026 16.7039 74.0041 16.7095 74.0053 16.7147Z" fill="#ED5261"/>
<path d="M70.9197 17.7048C70.8865 17.6261 70.8313 17.5601 70.7616 17.5131C70.6926 17.4657 70.6068 17.4381 70.5173 17.4381H68.3659C68.3062 17.4381 68.2481 17.4504 68.1958 17.4728C68.1168 17.506 68.0508 17.5612 68.0038 17.6306C67.9568 17.6999 67.9288 17.7857 67.9288 17.8752V19.6444C67.9288 19.704 67.9411 19.7622 67.9635 19.8148C67.9967 19.8935 68.0519 19.9595 68.1213 20.0065C68.1906 20.0538 68.2764 20.0814 68.3659 20.0814H70.5173C70.5766 20.0814 70.6351 20.0691 70.6873 20.0467C70.766 20.0136 70.8324 19.9584 70.8794 19.889C70.9264 19.8196 70.9544 19.7339 70.954 19.6444V17.8752C70.9544 17.8155 70.9421 17.7574 70.9197 17.7048ZM70.3573 19.4847H68.5255V18.0348H70.3573V19.4847Z" fill="#F4C563"/>
<defs>
<filter id="filter0_dd_11_621" x="0.924812" y="0.616541" width="56.0301" height="27.6692" filterUnits="userSpaceOnUse" color-interpolation-filters="sRGB">
<feFlood flood-opacity="0" result="BackgroundImageFix"/>
<feColorMatrix in="SourceAlpha" type="matrix" values="0 0 0 0 0 0 0 0 0 0 0 0 0 0 0 0 0 0 127 0" result="hardAlpha"/>
<feOffset dy="0.691729"/>
<feGaussianBlur stdDeviation="0.691729"/>
<feColorMatrix type="matrix" values="0 0 0 0 0 0 0 0 0 0 0 0 0 0 0 0 0 0 0.06 0"/>
<feBlend mode="normal" in2="BackgroundImageFix" result="effect1_dropShadow_11_621"/>
<feColorMatrix in="SourceAlpha" type="matrix" values="0 0 0 0 0 0 0 0 0 0 0 0 0 0 0 0 0 0 127 0" result="hardAlpha"/>
<feOffset dy="0.691729"/>
<feGaussianBlur stdDeviation="1.03759"/>
<feColorMatrix type="matrix" values="0 0 0 0 0 0 0 0 0 0 0 0 0 0 0 0 0 0 0.1 0"/>
<feBlend mode="normal" in2="effect1_dropShadow_11_621" result="effect2_dropShadow_11_621"/>
<feBlend mode="normal" in="SourceGraphic" in2="effect2_dropShadow_11_621" result="shape"/>
</filter>
<filter id="filter1_d_11_621" x="5" y="4" width="21" height="21" filterUnits="userSpaceOnUse" color-interpolation-filters="sRGB">
<feFlood flood-opacity="0" result="BackgroundImageFix"/>
<feColorMatrix in="SourceAlpha" type="matrix" values="0 0 0 0 0 0 0 0 0 0 0 0 0 0 0 0 0 0 127 0" result="hardAlpha"/>
<feOffset dy="1"/>
<feGaussianBlur stdDeviation="0.5"/>
<feComposite in2="hardAlpha" operator="out"/>
<feColorMatrix type="matrix" values="0 0 0 0 0 0 0 0 0 0 0 0 0 0 0 0 0 0 0.25 0"/>
<feBlend mode="normal" in2="BackgroundImageFix" result="effect1_dropShadow_11_621"/>
<feBlend mode="normal" in="SourceGraphic" in2="effect1_dropShadow_11_621" result="shape"/>
</filter>
</defs>
</svg>
