<svg width="101" height="28" viewBox="0 0 101 28" fill="none" xmlns="http://www.w3.org/2000/svg">
<g clip-path="url(#clip0_4574_17040)">
<rect width="101" height="27.0536" rx="13.5268" fill="#ECECEC"/>
<g filter="url(#filter0_d_4574_17040)">
<rect x="2.70312" y="3.17871" width="53.2054" height="21.6429" rx="10.8214" fill="white"/>
<path d="M17.1874 16.7856V8.91551H18.1404V15.9402H21.7988V16.7856H17.1874ZM23.1515 16.7856V10.883H24.0584V16.7856H23.1515ZM23.6126 9.89928C23.4359 9.89928 23.2834 9.83908 23.1553 9.71867C23.0298 9.59826 22.967 9.45351 22.967 9.28443C22.967 9.11534 23.0298 8.9706 23.1553 8.85019C23.2834 8.72978 23.4359 8.66957 23.6126 8.66957C23.7894 8.66957 23.9405 8.72978 24.0661 8.85019C24.1942 8.9706 24.2582 9.11534 24.2582 9.28443C24.2582 9.45351 24.1942 9.59826 24.0661 9.71867C23.9405 9.83908 23.7894 9.89928 23.6126 9.89928ZM28.102 19.1221C27.6639 19.1221 27.2873 19.0657 26.9722 18.953C26.6571 18.8428 26.3945 18.6968 26.1844 18.5149C25.9769 18.3356 25.8117 18.1434 25.6887 17.9385L26.4112 17.4312C26.4931 17.5388 26.5969 17.6618 26.7224 17.8002C26.848 17.9411 27.0196 18.0627 27.2374 18.1652C27.4577 18.2703 27.7459 18.3228 28.102 18.3228C28.5785 18.3228 28.9718 18.2075 29.2818 17.9769C29.5918 17.7464 29.7468 17.3851 29.7468 16.8932V15.6943H29.6699C29.6033 15.8019 29.5085 15.9351 29.3855 16.0939C29.2651 16.2502 29.0909 16.3898 28.8629 16.5128C28.6375 16.6332 28.3326 16.6934 27.9483 16.6934C27.4718 16.6934 27.044 16.5807 26.6648 16.3552C26.2882 16.1298 25.9897 15.8019 25.7694 15.3715C25.5517 14.9411 25.4428 14.4185 25.4428 13.8036C25.4428 13.199 25.5491 12.6725 25.7617 12.2242C25.9744 11.7733 26.2703 11.4249 26.6494 11.1789C27.0286 10.9304 27.4667 10.8062 27.9637 10.8062C28.348 10.8062 28.6528 10.8702 28.8783 10.9983C29.1063 11.1239 29.2805 11.2673 29.4009 11.4287C29.5239 11.5876 29.6187 11.7182 29.6853 11.8207H29.7775V10.883H30.6537V16.9547C30.6537 17.462 30.5384 17.8744 30.3078 18.1921C30.0798 18.5124 29.7724 18.7468 29.3855 18.8954C29.0012 19.0465 28.5734 19.1221 28.102 19.1221ZM28.0713 15.8787C28.4351 15.8787 28.7425 15.7955 28.9936 15.629C29.2446 15.4624 29.4355 15.2229 29.5661 14.9103C29.6968 14.5978 29.7621 14.2238 29.7621 13.7882C29.7621 13.363 29.6981 12.9876 29.57 12.6623C29.4419 12.3369 29.2523 12.082 29.0012 11.8976C28.7502 11.7131 28.4402 11.6209 28.0713 11.6209C27.687 11.6209 27.3668 11.7182 27.1106 11.9129C26.8569 12.1076 26.6661 12.3689 26.538 12.6969C26.4124 13.0248 26.3497 13.3886 26.3497 13.7882C26.3497 14.1981 26.4137 14.5606 26.5418 14.8758C26.6725 15.1883 26.8646 15.4342 27.1182 15.6136C27.3744 15.7903 27.6921 15.8787 28.0713 15.8787ZM33.2207 13.2349V16.7856H32.3138V8.91551H33.2207V11.8053H33.2975C33.4359 11.5005 33.6434 11.2584 33.9201 11.079C34.1993 10.8971 34.5708 10.8062 35.0345 10.8062C35.4367 10.8062 35.789 10.8869 36.0913 11.0483C36.3936 11.2071 36.628 11.4518 36.7945 11.7823C36.9636 12.1102 37.0481 12.5278 37.0481 13.035V16.7856H36.1412V13.0965C36.1412 12.6277 36.0195 12.2652 35.7762 12.009C35.5353 11.7502 35.201 11.6209 34.7732 11.6209C34.476 11.6209 34.2096 11.6836 33.9739 11.8092C33.7407 11.9347 33.5563 12.1179 33.4205 12.3587C33.2873 12.5995 33.2207 12.8916 33.2207 13.2349ZM41.2743 10.883V11.6516H38.2154V10.883H41.2743ZM39.1069 9.46888H40.0138V15.0948C40.0138 15.351 40.051 15.5431 40.1253 15.6712C40.2021 15.7968 40.2995 15.8813 40.4173 15.9248C40.5378 15.9658 40.6646 15.9863 40.7978 15.9863C40.8977 15.9863 40.9797 15.9812 41.0437 15.971C41.1078 15.9582 41.159 15.9479 41.1974 15.9402L41.3819 16.7549C41.3204 16.778 41.2346 16.801 41.1244 16.8241C41.0143 16.8497 40.8746 16.8625 40.7056 16.8625C40.4494 16.8625 40.1983 16.8074 39.9524 16.6973C39.709 16.5871 39.5066 16.4193 39.3452 16.1938C39.1864 15.9684 39.1069 15.684 39.1069 15.3407V9.46888Z" fill="#27272C"/>
</g>
<path d="M68.3114 16.3125H65.8827V8.44237H68.419C69.1824 8.44237 69.8357 8.59993 70.3788 8.91504C70.922 9.22759 71.3383 9.6772 71.6278 10.2639C71.9172 10.848 72.062 11.5474 72.062 12.3621C72.062 13.1819 71.916 13.8877 71.6239 14.4795C71.3319 15.0687 70.9066 15.5222 70.3481 15.8398C69.7896 16.1549 69.1107 16.3125 68.3114 16.3125ZM66.8357 15.4671H68.2499C68.9006 15.4671 69.4399 15.3415 69.8677 15.0905C70.2956 14.8394 70.6145 14.482 70.8246 14.0183C71.0347 13.5546 71.1397 13.0025 71.1397 12.3621C71.1397 11.7267 71.036 11.1798 70.8284 10.7212C70.6209 10.26 70.3109 9.90649 69.8985 9.66055C69.486 9.41205 68.9724 9.28779 68.3575 9.28779H66.8357V15.4671ZM75.2746 16.4508C74.9006 16.4508 74.5611 16.3804 74.2563 16.2395C73.9514 16.096 73.7093 15.8898 73.53 15.6208C73.3506 15.3492 73.261 15.0213 73.261 14.637C73.261 14.2989 73.3276 14.0247 73.4608 13.8147C73.594 13.602 73.7721 13.4355 73.9949 13.3151C74.2178 13.1947 74.4638 13.105 74.7328 13.0461C75.0043 12.9846 75.2772 12.9359 75.5513 12.9001C75.91 12.8539 76.2007 12.8194 76.4236 12.7963C76.6491 12.7707 76.813 12.7284 76.9155 12.6695C77.0205 12.6106 77.0731 12.5081 77.0731 12.3621V12.3313C77.0731 11.9522 76.9693 11.6575 76.7618 11.4475C76.5568 11.2374 76.2456 11.1324 75.828 11.1324C75.395 11.1324 75.0556 11.2271 74.8096 11.4167C74.5637 11.6063 74.3908 11.8087 74.2908 12.0239L73.43 11.7165C73.5838 11.3578 73.7887 11.0786 74.0449 10.8787C74.3036 10.6763 74.5855 10.5354 74.8903 10.456C75.1977 10.374 75.5001 10.333 75.7972 10.333C75.9868 10.333 76.2046 10.3561 76.4505 10.4022C76.699 10.4458 76.9386 10.5367 77.1691 10.6751C77.4023 10.8134 77.5957 11.0222 77.7494 11.3014C77.9031 11.5807 77.98 11.9547 77.98 12.4235V16.3125H77.0731V15.5132H77.0269C76.9655 15.6413 76.863 15.7783 76.7195 15.9244C76.576 16.0704 76.3852 16.1947 76.1469 16.2971C75.9087 16.3996 75.6179 16.4508 75.2746 16.4508ZM75.4129 15.6362C75.7716 15.6362 76.0739 15.5657 76.3199 15.4248C76.5684 15.2839 76.7554 15.102 76.8809 14.8791C77.009 14.6562 77.0731 14.4218 77.0731 14.1759V13.3458C77.0346 13.3919 76.9501 13.4342 76.8194 13.4726C76.6913 13.5085 76.5427 13.5405 76.3737 13.5687C76.2071 13.5943 76.0445 13.6174 75.8856 13.6379C75.7293 13.6558 75.6025 13.6712 75.5052 13.684C75.2695 13.7147 75.0492 13.7647 74.8442 13.8339C74.6418 13.9005 74.4779 14.0017 74.3523 14.1375C74.2294 14.2707 74.1679 14.4526 74.1679 14.6831C74.1679 14.9982 74.2844 15.2365 74.5176 15.3979C74.7533 15.5567 75.0517 15.6362 75.4129 15.6362ZM79.6353 16.3125V10.4099H80.5114V11.3014H80.5729C80.6805 11.0094 80.8752 10.7724 81.157 10.5905C81.4388 10.4086 81.7565 10.3177 82.11 10.3177C82.1767 10.3177 82.2599 10.319 82.3598 10.3215C82.4597 10.3241 82.5353 10.3279 82.5866 10.333V11.2553C82.5558 11.2476 82.4854 11.2361 82.3752 11.2207C82.2676 11.2028 82.1536 11.1938 82.0332 11.1938C81.7463 11.1938 81.4901 11.254 81.2646 11.3745C81.0417 11.4923 80.865 11.6563 80.7343 11.8663C80.6062 12.0739 80.5422 12.3108 80.5422 12.5773V16.3125H79.6353ZM84.507 14.1605L84.4916 13.0384H84.6761L87.2585 10.4099H88.3806L85.6291 13.1921H85.5523L84.507 14.1605ZM83.6616 16.3125V8.44237H84.5685V16.3125H83.6616ZM87.4122 16.3125L85.1065 13.3919L85.7521 12.7617L88.5651 16.3125H87.4122Z" fill="#333338"/>
</g>
<rect x="0.450893" y="0.450893" width="100.098" height="26.1518" rx="13.0759" stroke="white" stroke-width="0.901786"/>
<defs>
<filter id="filter0_d_4574_17040" x="-9.02009" y="-10.3481" width="80.2567" height="48.6966" filterUnits="userSpaceOnUse" color-interpolation-filters="sRGB">
<feFlood flood-opacity="0" result="BackgroundImageFix"/>
<feColorMatrix in="SourceAlpha" type="matrix" values="0 0 0 0 0 0 0 0 0 0 0 0 0 0 0 0 0 0 127 0" result="hardAlpha"/>
<feOffset dx="1.80357"/>
<feGaussianBlur stdDeviation="6.76339"/>
<feComposite in2="hardAlpha" operator="out"/>
<feColorMatrix type="matrix" values="0 0 0 0 0 0 0 0 0 0 0 0 0 0 0 0 0 0 0.3 0"/>
<feBlend mode="normal" in2="BackgroundImageFix" result="effect1_dropShadow_4574_17040"/>
<feBlend mode="normal" in="SourceGraphic" in2="effect1_dropShadow_4574_17040" result="shape"/>
</filter>
<clipPath id="clip0_4574_17040">
<rect width="101" height="27.0536" rx="13.5268" fill="white"/>
</clipPath>
</defs>
</svg>
