<svg width="103" height="30" viewBox="0 0 103 30" fill="none" xmlns="http://www.w3.org/2000/svg">
<path d="M0.766491 17.8296V11.4999H1.53298V17.1496H4.47532V17.8296H0.766491ZM5.56324 17.8296V13.0823H6.29264V17.8296H5.56324ZM5.93412 12.2911C5.79195 12.2911 5.66935 12.2427 5.56633 12.1458C5.46537 12.049 5.41489 11.9326 5.41489 11.7966C5.41489 11.6606 5.46537 11.5442 5.56633 11.4473C5.66935 11.3505 5.79195 11.3021 5.93412 11.3021C6.07629 11.3021 6.19786 11.3505 6.29882 11.4473C6.40185 11.5442 6.45336 11.6606 6.45336 11.7966C6.45336 11.9326 6.40185 12.049 6.29882 12.1458C6.19786 12.2427 6.07629 12.2911 5.93412 12.2911ZM9.54482 19.7087C9.19248 19.7087 8.88959 19.6634 8.63616 19.5727C8.38272 19.4841 8.17152 19.3667 8.00256 19.2204C7.83567 19.0762 7.70277 18.9216 7.60387 18.7568L8.18492 18.3488C8.25085 18.4354 8.3343 18.5343 8.43526 18.6455C8.53622 18.7589 8.67427 18.8567 8.84941 18.9391C9.02661 19.0236 9.25841 19.0659 9.54482 19.0659C9.92806 19.0659 10.2443 18.9731 10.4937 18.7877C10.743 18.6023 10.8676 18.3117 10.8676 17.9161V16.9518H10.8058C10.7522 17.0384 10.676 17.1455 10.5771 17.2733C10.4803 17.399 10.3402 17.5112 10.1568 17.6102C9.97545 17.707 9.73026 17.7554 9.42119 17.7554C9.03795 17.7554 8.69385 17.6648 8.3889 17.4834C8.08601 17.3021 7.84597 17.0384 7.66877 16.6922C7.49363 16.3461 7.40606 15.9257 7.40606 15.4312C7.40606 14.9449 7.49157 14.5215 7.66259 14.1609C7.83361 13.7983 8.07159 13.5181 8.37654 13.3203C8.68149 13.1204 9.03382 13.0205 9.43355 13.0205C9.74262 13.0205 9.98782 13.072 10.1691 13.175C10.3525 13.276 10.4926 13.3914 10.5895 13.5212C10.6884 13.6489 10.7646 13.754 10.8182 13.8364H10.8924V13.0823H11.597V17.9656C11.597 18.3736 11.5043 18.7053 11.3189 18.9608C11.1355 19.2183 10.8882 19.4069 10.5771 19.5264C10.268 19.6479 9.92394 19.7087 9.54482 19.7087ZM9.52009 17.1002C9.81268 17.1002 10.0599 17.0332 10.2619 16.8993C10.4638 16.7654 10.6173 16.5727 10.7224 16.3213C10.8275 16.07 10.88 15.7691 10.88 15.4189C10.88 15.0768 10.8285 14.775 10.7255 14.5133C10.6224 14.2516 10.47 14.0466 10.268 13.8982C10.0661 13.7499 9.8168 13.6757 9.52009 13.6757C9.21102 13.6757 8.95347 13.754 8.74742 13.9106C8.54344 14.0672 8.38993 14.2774 8.28691 14.5411C8.18595 14.8048 8.13546 15.0974 8.13546 15.4189C8.13546 15.7485 8.18698 16.0401 8.29 16.2935C8.39508 16.5449 8.54962 16.7427 8.7536 16.8869C8.95965 17.0291 9.21514 17.1002 9.52009 17.1002ZM13.6616 14.9738V17.8296H12.9322V11.4999H13.6616V13.8241H13.7234C13.8347 13.5789 14.0016 13.3841 14.2241 13.2399C14.4487 13.0936 14.7475 13.0205 15.1204 13.0205C15.4439 13.0205 15.7272 13.0854 15.9704 13.2152C16.2135 13.3429 16.402 13.5397 16.536 13.8055C16.6719 14.0693 16.7399 14.4051 16.7399 14.8131V17.8296H16.0105V14.8625C16.0105 14.4855 15.9127 14.1939 15.7169 13.9879C15.5232 13.7798 15.2543 13.6757 14.9103 13.6757C14.6712 13.6757 14.457 13.7262 14.2674 13.8271C14.0799 13.9281 13.9315 14.0754 13.8223 14.2691C13.7152 14.4628 13.6616 14.6977 13.6616 14.9738ZM20.1389 13.0823V13.7004H17.6787V13.0823H20.1389ZM18.3958 11.9449H19.1252V16.4697C19.1252 16.6757 19.1551 16.8303 19.2148 16.9333C19.2766 17.0343 19.3549 17.1022 19.4497 17.1373C19.5465 17.1702 19.6485 17.1867 19.7557 17.1867C19.836 17.1867 19.902 17.1826 19.9535 17.1744C20.005 17.1641 20.0462 17.1558 20.0771 17.1496L20.2255 17.8049C20.176 17.8234 20.107 17.842 20.0184 17.8605C19.9298 17.8811 19.8175 17.8914 19.6815 17.8914C19.4755 17.8914 19.2735 17.8471 19.0757 17.7585C18.88 17.6699 18.7172 17.5349 18.5874 17.3536C18.4597 17.1723 18.3958 16.9436 18.3958 16.6675V11.9449Z" fill="#27272C"/>
<g filter="url(#filter0_dd_4574_17044)">
<rect x="24.625" y="2" width="54.3961" height="24.6596" rx="12.3298" fill="#EA580C"/>
<path fill-rule="evenodd" clip-rule="evenodd" d="M37.3155 8.46162C37.0967 8.46162 36.9194 8.28687 36.9194 8.07122V5.29128C36.9194 5.07563 37.0967 4.90088 37.3155 4.90088C37.5344 4.90088 37.7117 5.07563 37.7117 5.29128V8.07122C37.7117 8.28687 37.5344 8.46162 37.3155 8.46162ZM37.3181 18.8606C36.6479 18.8606 35.9975 18.7312 35.3851 18.4759C34.7937 18.2294 34.2627 17.8767 33.8067 17.4274C33.3507 16.9781 32.9928 16.4549 32.7427 15.8721C32.4837 15.2685 32.3524 14.6276 32.3524 13.9672C32.3524 13.3067 32.4837 12.6658 32.7427 12.0622C32.9929 11.4795 33.3508 10.9562 33.8067 10.5069C34.2626 10.0577 34.7936 9.70482 35.3849 9.45843C35.9974 9.20312 36.6477 9.07373 37.3179 9.07373C37.9881 9.07373 38.6385 9.20312 39.2509 9.45843C39.8423 9.70494 40.3733 10.0577 40.8292 10.5069C41.285 10.9562 41.6431 11.4795 41.8931 12.0622C42.1522 12.6658 42.2835 13.3067 42.2835 13.9672C42.2835 14.6276 42.1522 15.2685 41.8931 15.8721C41.643 16.4549 41.285 16.9781 40.8292 17.4274C40.3733 17.8767 39.8423 18.2295 39.2509 18.4759C38.6386 18.7312 37.9883 18.8606 37.3181 18.8606ZM37.3181 9.85429C35.0168 9.85429 33.1447 11.6992 33.1447 13.9671C33.1447 16.2349 35.0168 18.0798 37.3181 18.0798C39.6193 18.0798 41.4914 16.2349 41.4914 13.9671C41.4914 11.6992 39.6193 9.85429 37.3181 9.85429ZM34.8995 8.5603C34.9579 8.71882 35.1099 8.81722 35.2717 8.81722C35.3166 8.81722 35.3624 8.80966 35.4072 8.79367C35.6128 8.71993 35.7188 8.49598 35.644 8.29334L34.6791 5.68097C34.6043 5.47833 34.377 5.37385 34.1714 5.44759C33.9658 5.52134 33.8598 5.74529 33.9346 5.94793L34.8995 8.5603ZM33.4684 9.84123C33.3554 9.84123 33.2431 9.79376 33.1647 9.7018L31.3514 7.57217C31.2108 7.40696 31.2327 7.1607 31.4002 7.02214C31.5679 6.88357 31.8178 6.90514 31.9584 7.07022L33.7717 9.19985C33.9123 9.36506 33.8904 9.61133 33.7229 9.74989C33.6487 9.81124 33.5582 9.84123 33.4684 9.84123ZM31.9339 11.3573C31.9962 11.3929 32.0644 11.4097 32.1316 11.4097C32.2684 11.4097 32.4016 11.3397 32.4749 11.2144C32.5843 11.0276 32.5194 10.7889 32.3299 10.6811L29.8869 9.29114C29.6974 9.18332 29.4552 9.24727 29.3458 9.43405C29.2363 9.62082 29.3012 9.85953 29.4908 9.96735L31.9339 11.3573ZM31.4247 13.3337C31.4018 13.3337 31.3787 13.3317 31.3554 13.3278L28.5774 12.845C28.362 12.8076 28.2181 12.6051 28.2561 12.3928C28.2941 12.1805 28.4996 12.0387 28.715 12.0761L31.493 12.5587C31.7084 12.5962 31.8523 12.7987 31.8143 13.011C31.7805 13.2005 31.6134 13.3337 31.4247 13.3337ZM28.2561 15.5414C28.2899 15.7309 28.4571 15.8642 28.6457 15.8642C28.6685 15.8642 28.6917 15.8622 28.715 15.8581L31.493 15.3754C31.7084 15.3379 31.8523 15.1354 31.8143 14.9231C31.7764 14.7108 31.5709 14.569 31.3554 14.6065L28.5774 15.0892C28.362 15.1266 28.2181 15.3291 28.2561 15.5414ZM29.6892 18.6951C29.5523 18.6951 29.4192 18.6251 29.3458 18.4998C29.2363 18.313 29.3012 18.0743 29.4908 17.9665L31.9337 16.5765C32.1231 16.4687 32.3655 16.5327 32.4749 16.7194C32.5843 16.9062 32.5194 17.1449 32.3299 17.2527L29.8869 18.6427C29.8245 18.6782 29.7565 18.6951 29.6892 18.6951ZM31.4003 20.9121C31.4745 20.9735 31.5648 21.0035 31.6547 21.0035C31.7678 21.0035 31.8801 20.956 31.9584 20.864L33.7717 18.7344C33.9123 18.5692 33.8906 18.3229 33.7229 18.1844C33.5553 18.0458 33.3054 18.0672 33.1648 18.2324L31.3515 20.3621C31.2109 20.5273 31.2326 20.7735 31.4003 20.9121ZM34.3069 22.5099C34.2618 22.5099 34.2162 22.5023 34.1714 22.4862C33.9658 22.4125 33.8598 22.1884 33.9346 21.9859L34.8995 19.3735C34.9743 19.1709 35.2017 19.0664 35.4072 19.1401C35.6128 19.2139 35.7188 19.4379 35.644 19.6405L34.6791 22.2528C34.6206 22.4115 34.4687 22.5099 34.3069 22.5099ZM36.9194 22.6427C36.9194 22.8584 37.0967 23.0331 37.3155 23.0331C37.5344 23.0331 37.7117 22.8584 37.7117 22.6427V19.8628C37.7117 19.6471 37.5344 19.4724 37.3155 19.4724C37.0967 19.4724 36.9194 19.6471 36.9194 19.8628V22.6427ZM40.326 22.5099C40.1642 22.5099 40.0122 22.4115 39.9538 22.2528L38.9889 19.6405C38.9141 19.4378 39.0201 19.2139 39.2257 19.1401C39.4313 19.0664 39.6586 19.1709 39.7334 19.3735L40.6983 21.9859C40.7731 22.1885 40.6671 22.4125 40.4615 22.4862C40.4167 22.5023 40.3709 22.5099 40.326 22.5099ZM42.6727 20.8636C42.7511 20.9556 42.8634 21.0031 42.9764 21.0031C43.0662 21.0031 43.1567 20.9731 43.2309 20.9117C43.3984 20.7732 43.4203 20.5269 43.2796 20.3617L41.4664 18.2321C41.3258 18.067 41.0759 18.0454 40.9082 18.184C40.7407 18.3225 40.7188 18.5688 40.8594 18.734L42.6727 20.8636ZM44.9372 18.6951C44.87 18.6951 44.8019 18.6783 44.7395 18.6427L42.2965 17.2527C42.107 17.1449 42.0421 16.9062 42.1515 16.7194C42.2609 16.5327 42.5031 16.4687 42.6927 16.5765L45.1356 17.9665C45.3252 18.0743 45.3901 18.313 45.2807 18.4998C45.2072 18.6251 45.0741 18.6951 44.9372 18.6951ZM45.9178 15.8581C45.9411 15.8621 45.9642 15.8641 45.9871 15.8641C46.1758 15.8641 46.3429 15.7307 46.3768 15.5414C46.4147 15.3291 46.2709 15.1266 46.0554 15.0892L43.2773 14.6065C43.0619 14.569 42.8564 14.7108 42.8184 14.9231C42.7804 15.1354 42.9243 15.3379 43.1397 15.3754L45.9178 15.8581ZM43.208 13.3335C43.0193 13.3335 42.8522 13.2002 42.8184 13.0107C42.7804 12.7984 42.9243 12.5959 43.1397 12.5585L45.9178 12.0758C46.1333 12.0383 46.3388 12.1801 46.3768 12.3924C46.4147 12.6047 46.2709 12.8072 46.0554 12.8447L43.2773 13.3274C43.254 13.3315 43.2309 13.3335 43.208 13.3335ZM42.1515 11.2144C42.225 11.3397 42.358 11.4097 42.495 11.4097C42.5623 11.4097 42.6303 11.3929 42.6927 11.3573L45.1356 9.96735C45.3252 9.85953 45.3901 9.62082 45.2807 9.43405C45.1712 9.24727 44.9289 9.18332 44.7395 9.29114L42.2965 10.6811C42.107 10.7889 42.0421 11.0276 42.1515 11.2144ZM41.1627 9.84132C41.0728 9.84132 40.9825 9.81133 40.9083 9.74998C40.7406 9.61142 40.7189 9.36515 40.8595 9.19994L42.6728 7.07032C42.8134 6.90511 43.0632 6.88354 43.2309 7.02223C43.3985 7.16079 43.4203 7.40706 43.2797 7.57227L41.4664 9.70177C41.3881 9.79386 41.2758 9.84132 41.1627 9.84132ZM39.2257 8.79368C39.2705 8.80979 39.3161 8.81735 39.3612 8.81735C39.5229 8.81735 39.6748 8.71894 39.7334 8.5603L40.6983 5.94793C40.7731 5.74542 40.667 5.52134 40.4615 5.44759C40.256 5.37385 40.0286 5.47833 39.9538 5.68097L38.9889 8.29334C38.9141 8.49585 39.0201 8.71993 39.2257 8.79368Z" fill="white"/>
</g>
<path d="M85.3682 17.8296H83.4149V11.4999H85.4548C86.0688 11.4999 86.5942 11.6266 87.031 11.88C87.4679 12.1314 87.8027 12.493 88.0355 12.9648C88.2683 13.4346 88.3848 13.9971 88.3848 14.6524C88.3848 15.3117 88.2673 15.8794 88.0324 16.3553C87.7975 16.8292 87.4555 17.1939 87.0063 17.4494C86.5571 17.7029 86.0111 17.8296 85.3682 17.8296ZM84.1814 17.1496H85.3188C85.8421 17.1496 86.2759 17.0487 86.62 16.8468C86.9641 16.6448 87.2206 16.3574 87.3896 15.9844C87.5585 15.6115 87.643 15.1675 87.643 14.6524C87.643 14.1414 87.5595 13.7015 87.3926 13.3326C87.2257 12.9618 86.9764 12.6774 86.6447 12.4796C86.313 12.2797 85.8998 12.1798 85.4053 12.1798H84.1814V17.1496ZM90.9686 17.9409C90.6677 17.9409 90.3947 17.8842 90.1495 17.7709C89.9043 17.6555 89.7096 17.4896 89.5654 17.2733C89.4212 17.0549 89.349 16.7911 89.349 16.482C89.349 16.2101 89.4026 15.9896 89.5098 15.8206C89.6169 15.6496 89.7601 15.5157 89.9394 15.4189C90.1186 15.322 90.3164 15.2499 90.5328 15.2025C90.7512 15.1531 90.9706 15.1139 91.1911 15.0851C91.4796 15.048 91.7134 15.0202 91.8927 15.0016C92.074 14.981 92.2059 14.947 92.2883 14.8996C92.3728 14.8522 92.415 14.7698 92.415 14.6524V14.6276C92.415 14.3227 92.3316 14.0857 92.1647 13.9168C91.9998 13.7478 91.7495 13.6633 91.4136 13.6633C91.0654 13.6633 90.7924 13.7396 90.5946 13.8921C90.3968 14.0445 90.2577 14.2073 90.1774 14.3804L89.485 14.1331C89.6087 13.8447 89.7735 13.6201 89.9796 13.4594C90.1877 13.2966 90.4143 13.1833 90.6595 13.1194C90.9068 13.0534 91.1499 13.0205 91.3889 13.0205C91.5414 13.0205 91.7165 13.039 91.9143 13.0761C92.1142 13.1111 92.3068 13.1843 92.4923 13.2955C92.6798 13.4068 92.8353 13.5747 92.959 13.7993C93.0826 14.0239 93.1444 14.3247 93.1444 14.7018V17.8296H92.415V17.1867H92.3779C92.3285 17.2897 92.2461 17.4 92.1307 17.5174C92.0153 17.6349 91.8618 17.7348 91.6702 17.8172C91.4785 17.8996 91.2447 17.9409 90.9686 17.9409ZM91.0798 17.2856C91.3683 17.2856 91.6114 17.229 91.8092 17.1156C92.0091 17.0023 92.1595 16.856 92.2605 16.6768C92.3635 16.4975 92.415 16.309 92.415 16.1112V15.4436C92.3841 15.4807 92.3161 15.5147 92.211 15.5456C92.108 15.5744 91.9885 15.6002 91.8525 15.6228C91.7186 15.6434 91.5877 15.662 91.46 15.6785C91.3343 15.6929 91.2323 15.7053 91.154 15.7156C90.9644 15.7403 90.7873 15.7805 90.6224 15.8361C90.4596 15.8897 90.3278 15.9711 90.2268 16.0803C90.1279 16.1874 90.0785 16.3337 90.0785 16.5191C90.0785 16.7726 90.1722 16.9642 90.3597 17.094C90.5493 17.2218 90.7893 17.2856 91.0798 17.2856ZM94.4757 17.8296V13.0823H95.1804V13.7993H95.2299C95.3164 13.5644 95.473 13.3738 95.6996 13.2276C95.9263 13.0813 96.1818 13.0081 96.4661 13.0081C96.5197 13.0081 96.5867 13.0091 96.667 13.0112C96.7474 13.0133 96.8082 13.0164 96.8494 13.0205V13.7622C96.8247 13.7561 96.768 13.7468 96.6794 13.7344C96.5929 13.72 96.5012 13.7128 96.4043 13.7128C96.1735 13.7128 95.9675 13.7612 95.7862 13.8581C95.6069 13.9528 95.4647 14.0847 95.3597 14.2537C95.2566 14.4206 95.2051 14.6112 95.2051 14.8254V17.8296H94.4757ZM98.3939 16.0988L98.3816 15.1963H98.5299L100.607 13.0823H101.509L99.2964 15.32H99.2346L98.3939 16.0988ZM97.714 17.8296V11.4999H98.4434V17.8296H97.714ZM100.731 17.8296L98.8761 15.4807L99.3953 14.9738L101.658 17.8296H100.731Z" fill="#27272C"/>
<defs>
<filter id="filter0_dd_4574_17044" x="22.4492" y="0.549437" width="58.7501" height="29.0114" filterUnits="userSpaceOnUse" color-interpolation-filters="sRGB">
<feFlood flood-opacity="0" result="BackgroundImageFix"/>
<feColorMatrix in="SourceAlpha" type="matrix" values="0 0 0 0 0 0 0 0 0 0 0 0 0 0 0 0 0 0 127 0" result="hardAlpha"/>
<feOffset dy="0.725282"/>
<feGaussianBlur stdDeviation="0.725282"/>
<feColorMatrix type="matrix" values="0 0 0 0 0 0 0 0 0 0 0 0 0 0 0 0 0 0 0.06 0"/>
<feBlend mode="normal" in2="BackgroundImageFix" result="effect1_dropShadow_4574_17044"/>
<feColorMatrix in="SourceAlpha" type="matrix" values="0 0 0 0 0 0 0 0 0 0 0 0 0 0 0 0 0 0 127 0" result="hardAlpha"/>
<feOffset dy="0.725282"/>
<feGaussianBlur stdDeviation="1.08792"/>
<feColorMatrix type="matrix" values="0 0 0 0 0 0 0 0 0 0 0 0 0 0 0 0 0 0 0.1 0"/>
<feBlend mode="normal" in2="effect1_dropShadow_4574_17044" result="effect2_dropShadow_4574_17044"/>
<feBlend mode="normal" in="SourceGraphic" in2="effect2_dropShadow_4574_17044" result="shape"/>
</filter>
</defs>
</svg>
