<svg width="92" height="47" viewBox="0 0 92 47" fill="none" xmlns="http://www.w3.org/2000/svg">
<g clip-path="url(#clip0_4574_17072)">
<rect width="45" height="45" transform="translate(1 1)" fill="white"/>
<path d="M17.1132 28.9542H15.1719L19.5339 16.833H21.6468L26.0088 28.9542H24.0675L20.6406 19.0347H20.5459L17.1132 28.9542ZM17.4387 24.2075H23.736V25.7464H17.4387V24.2075Z" fill="black"/>
<path fill-rule="evenodd" clip-rule="evenodd" d="M31.7896 23.7778L29.9239 21L28.0859 23.7778H29.4727V26.5553H28.0859L29.9239 29.3331L31.7896 26.5553H30.3986V23.7778H31.7896Z" fill="black"/>
<line x1="45.5833" y1="46" x2="45.5833" y2="1" stroke="#1F2937" stroke-width="0.833333"/>
<rect width="45" height="45" transform="translate(46 1)" fill="white"/>
<path fill-rule="evenodd" clip-rule="evenodd" d="M69.1757 17.0174V15.012C69.1757 14.6363 68.8724 14.333 68.4967 14.333C68.121 14.333 67.8177 14.6363 67.8177 15.012V17.0174C67.8177 17.3931 68.121 17.6964 68.4967 17.6964C68.8724 17.6964 69.1757 17.3931 69.1757 17.0174ZM63.4362 23.4996C63.4362 26.2926 65.7086 28.5605 68.4971 28.5605C71.2856 28.5605 73.5581 26.2881 73.5581 23.4996C73.5581 20.7111 71.2856 18.4386 68.4971 18.4386C65.7086 18.4386 63.4362 20.7066 63.4362 23.4996ZM68.4971 19.7967C70.5387 19.7967 72.2 21.458 72.2 23.4996C72.2 25.5411 70.5387 27.2025 68.4971 27.2025C66.4556 27.2025 64.7942 25.5411 64.7942 23.4996C64.7942 21.458 66.4556 19.7967 68.4971 19.7967ZM74.0182 17.0174C74.2808 16.7504 74.7154 16.7504 74.9779 17.0174C75.2405 17.2845 75.2405 17.7146 74.9779 17.9771L73.561 19.394C73.4297 19.5253 73.2532 19.5932 73.0812 19.5932C72.9092 19.5932 72.7326 19.5253 72.6014 19.394C72.3343 19.1315 72.3343 18.7014 72.6014 18.4343L74.0182 17.0174ZM76.9799 22.8206H74.9746C74.5989 22.8206 74.2956 23.1238 74.2956 23.4996C74.2956 23.8753 74.5989 24.1786 74.9746 24.1786H76.9799C77.3557 24.1786 77.659 23.8753 77.659 23.4996C77.659 23.1238 77.3557 22.8206 76.9799 22.8206ZM72.6014 28.5651C72.3343 28.3025 72.3343 27.8725 72.6014 27.6054C72.8639 27.3383 73.2939 27.3383 73.561 27.6054L74.9779 29.0223C75.245 29.2849 75.245 29.7149 74.9779 29.982C74.8466 30.1133 74.6701 30.1812 74.4981 30.1812C74.326 30.1812 74.1495 30.1133 74.0182 29.982L72.6014 28.5651ZM67.8177 29.9819V31.9873C67.8177 32.363 68.121 32.6663 68.4967 32.6663C68.8724 32.6663 69.1757 32.363 69.1757 31.9873V29.9819C69.1757 29.6062 68.8724 29.3029 68.4967 29.3029C68.121 29.3029 67.8177 29.6062 67.8177 29.9819ZM62.0154 29.0223L63.4323 27.6054C63.6994 27.3383 64.1294 27.3383 64.392 27.6054C64.659 27.868 64.659 28.298 64.392 28.5651L62.9751 29.982C62.8438 30.1133 62.6673 30.1812 62.4953 30.1812C62.3232 30.1812 62.1467 30.1133 62.0154 29.982C61.7483 29.7194 61.7483 29.2894 62.0154 29.0223ZM62.6915 23.4996C62.6915 23.1238 62.3882 22.8206 62.0125 22.8206H60.0071C59.6314 22.8206 59.3281 23.1238 59.3281 23.4996C59.3281 23.8753 59.6314 24.1786 60.0071 24.1786H62.0125C62.3882 24.1786 62.6915 23.8753 62.6915 23.4996ZM62.0154 17.0174C62.278 16.7504 62.708 16.7504 62.9751 17.0174L64.392 18.4343C64.659 18.6969 64.659 19.1269 64.392 19.394C64.2607 19.5253 64.0841 19.5932 63.9121 19.5932C63.7401 19.5932 63.5636 19.5253 63.4323 19.394L62.0154 17.9771C61.7483 17.7146 61.7483 17.2845 62.0154 17.0174Z" fill="black"/>
</g>
<rect x="0.583333" y="0.583333" width="90.8333" height="45.8333" rx="4.58333" stroke="#1F2937" stroke-width="0.833333"/>
<defs>
<clipPath id="clip0_4574_17072">
<rect x="1" y="1" width="90" height="45" rx="4.16667" fill="white"/>
</clipPath>
</defs>
</svg>
