<svg width="66" height="66" viewBox="0 0 66 66" fill="none" xmlns="http://www.w3.org/2000/svg">
<g filter="url(#filter0_dd_4574_17061)">
<rect x="3" y="2" width="60" height="60" rx="15" fill="#555555"/>
<path fill-rule="evenodd" clip-rule="evenodd" d="M34.426 22.6605V19.9259C34.426 19.4136 34.0124 19 33.5001 19C32.9877 19 32.5742 19.4136 32.5742 19.9259V22.6605C32.5742 23.1729 32.9877 23.5864 33.5001 23.5864C34.0124 23.5864 34.426 23.1729 34.426 22.6605ZM26.5987 31.4999C26.5987 35.3086 29.6974 38.4012 33.4999 38.4012C37.3024 38.4012 40.4012 35.3024 40.4012 31.4999C40.4012 27.6974 37.3024 24.5987 33.4999 24.5987C29.6974 24.5987 26.5987 27.6913 26.5987 31.4999ZM33.4999 26.4505C36.2839 26.4505 38.5493 28.716 38.5493 31.4999C38.5493 34.2839 36.2839 36.5493 33.4999 36.5493C30.716 36.5493 28.4505 34.2839 28.4505 31.4999C28.4505 28.716 30.716 26.4505 33.4999 26.4505ZM41.0309 22.6604C41.3889 22.2962 41.9815 22.2962 42.3396 22.6604C42.6976 23.0246 42.6976 23.611 42.3396 23.969L40.4074 25.9011C40.2284 26.0801 39.9877 26.1727 39.7531 26.1727C39.5186 26.1727 39.2778 26.0801 39.0988 25.9011C38.7346 25.5431 38.7346 24.9567 39.0988 24.5925L41.0309 22.6604ZM45.0741 30.5742H42.3395C41.8271 30.5742 41.4136 30.9877 41.4136 31.5001C41.4136 32.0124 41.8271 32.426 42.3395 32.426H45.0741C45.5864 32.426 46 32.0124 46 31.5001C46 30.9877 45.5864 30.5742 45.0741 30.5742ZM39.0988 38.4074C38.7346 38.0494 38.7346 37.463 39.0988 37.0988C39.4568 36.7346 40.0432 36.7346 40.4074 37.0988L42.3396 39.0309C42.7038 39.3889 42.7038 39.9754 42.3396 40.3396C42.1605 40.5186 41.9198 40.6112 41.6852 40.6112C41.4507 40.6112 41.2099 40.5186 41.0309 40.3396L39.0988 38.4074ZM32.5742 40.3395V43.0741C32.5742 43.5864 32.9877 44 33.5001 44C34.0124 44 34.426 43.5864 34.426 43.0741V40.3395C34.426 39.8271 34.0124 39.4136 33.5001 39.4136C32.9877 39.4136 32.5742 39.8271 32.5742 40.3395ZM24.6604 39.0309L26.5925 37.0988C26.9567 36.7346 27.5431 36.7346 27.9011 37.0988C28.2653 37.4568 28.2653 38.0432 27.9011 38.4074L25.969 40.3396C25.79 40.5186 25.5493 40.6112 25.3147 40.6112C25.0801 40.6112 24.8394 40.5186 24.6604 40.3396C24.2962 39.9815 24.2962 39.3951 24.6604 39.0309ZM25.5864 31.5001C25.5864 30.9877 25.1729 30.5742 24.6605 30.5742H21.9259C21.4136 30.5742 21 30.9877 21 31.5001C21 32.0124 21.4136 32.426 21.9259 32.426H24.6605C25.1729 32.426 25.5864 32.0124 25.5864 31.5001ZM24.6604 22.6604C25.0184 22.2962 25.6048 22.2962 25.969 22.6604L27.9011 24.5925C28.2653 24.9505 28.2653 25.5369 27.9011 25.9011C27.7221 26.0801 27.4814 26.1727 27.2468 26.1727C27.0122 26.1727 26.7715 26.0801 26.5925 25.9011L24.6604 23.969C24.2962 23.611 24.2962 23.0246 24.6604 22.6604Z" fill="white"/>
</g>
<defs>
<filter id="filter0_dd_4574_17061" x="0" y="0" width="66" height="66" filterUnits="userSpaceOnUse" color-interpolation-filters="sRGB">
<feFlood flood-opacity="0" result="BackgroundImageFix"/>
<feColorMatrix in="SourceAlpha" type="matrix" values="0 0 0 0 0 0 0 0 0 0 0 0 0 0 0 0 0 0 127 0" result="hardAlpha"/>
<feOffset dy="1"/>
<feGaussianBlur stdDeviation="1"/>
<feColorMatrix type="matrix" values="0 0 0 0 0 0 0 0 0 0 0 0 0 0 0 0 0 0 0.06 0"/>
<feBlend mode="normal" in2="BackgroundImageFix" result="effect1_dropShadow_4574_17061"/>
<feColorMatrix in="SourceAlpha" type="matrix" values="0 0 0 0 0 0 0 0 0 0 0 0 0 0 0 0 0 0 127 0" result="hardAlpha"/>
<feOffset dy="1"/>
<feGaussianBlur stdDeviation="1.5"/>
<feColorMatrix type="matrix" values="0 0 0 0 0 0 0 0 0 0 0 0 0 0 0 0 0 0 0.1 0"/>
<feBlend mode="normal" in2="effect1_dropShadow_4574_17061" result="effect2_dropShadow_4574_17061"/>
<feBlend mode="normal" in="SourceGraphic" in2="effect2_dropShadow_4574_17061" result="shape"/>
</filter>
</defs>
</svg>
