<svg width="41" height="92" viewBox="0 0 41 92" fill="none" xmlns="http://www.w3.org/2000/svg">
<g clip-path="url(#clip0_4574_17076)">
<rect width="38.3333" height="45" transform="translate(1 1)" fill="white"/>
<path d="M20.1667 28.8335C20.2413 28.8335 20.2413 25.2782 20.1667 18.1668C18.7522 18.1668 17.3956 18.7287 16.3954 19.7289C15.3952 20.7291 14.8333 22.0857 14.8333 23.5002C14.8333 24.9146 15.3952 26.2712 16.3954 27.2714C17.3956 28.2716 18.7522 28.8335 20.1667 28.8335ZM20.1667 30.1668C16.4847 30.1668 13.5 27.1822 13.5 23.5002C13.5 19.8182 16.4847 16.8335 20.1667 16.8335C23.8487 16.8335 26.8333 19.8182 26.8333 23.5002C26.8333 27.1822 23.8487 30.1668 20.1667 30.1668Z" fill="black"/>
<line x1="1" y1="45.5833" x2="39.3333" y2="45.5833" stroke="#1F2937" stroke-width="0.833333"/>
<rect width="38.3333" height="45" transform="translate(1 46)" fill="white"/>
<path d="M25.2857 67.1906V74.3335H23.5V67.1906H19.9286V65.4049H28.8571V67.1906H25.2857ZM18.1429 63.6192V74.3335H16.3571V63.6192H11V61.8335H24.3928V63.6192H18.1429Z" fill="black"/>
</g>
<rect x="0.583334" y="0.583334" width="39.1666" height="90.8333" rx="7.08333" stroke="#1F2937" stroke-width="0.833333"/>
<defs>
<clipPath id="clip0_4574_17076">
<rect x="1" y="1" width="38.3333" height="89.9999" rx="6.66666" fill="white"/>
</clipPath>
</defs>
</svg>
