<svg width="81" height="40" viewBox="0 0 81 40" fill="none" xmlns="http://www.w3.org/2000/svg">
<rect x="0.5" y="1.5" width="76" height="35" rx="17.5" fill="#6B7280"/>
<rect x="0.5" y="1.5" width="76" height="35" rx="17.5" stroke="#9CA3AF"/>
<path d="M20.5 10.1562C20.897 10.1562 21.2188 10.478 21.2188 10.875V13.0312C21.2188 13.4282 20.897 13.75 20.5 13.75C20.103 13.75 19.7812 13.4282 19.7812 13.0312V10.875C19.7812 10.478 20.103 10.1562 20.5 10.1562Z" fill="#FFED8C"/>
<path d="M16.1875 19.5C16.1875 17.1183 18.1183 15.1875 20.5 15.1875C22.8817 15.1875 24.8125 17.1183 24.8125 19.5C24.8125 21.8817 22.8817 23.8125 20.5 23.8125C18.1183 23.8125 16.1875 21.8817 16.1875 19.5Z" fill="#FFED8C"/>
<path d="M27.1071 13.9094C27.3878 13.6287 27.3878 13.1736 27.1071 12.8929C26.8264 12.6123 26.3713 12.6123 26.0906 12.8929L24.5659 14.4176C24.2852 14.6983 24.2852 15.1534 24.5659 15.4341C24.8466 15.7148 25.3017 15.7148 25.5824 15.4341L27.1071 13.9094Z" fill="#FFED8C"/>
<path d="M29.8438 19.5C29.8438 19.897 29.522 20.2188 29.125 20.2188H26.9688C26.5718 20.2188 26.25 19.897 26.25 19.5C26.25 19.103 26.5718 18.7812 26.9688 18.7812H29.125C29.522 18.7812 29.8438 19.103 29.8438 19.5Z" fill="#FFED8C"/>
<path d="M26.0905 26.107C26.3712 26.3877 26.8263 26.3877 27.107 26.107C27.3877 25.8263 27.3877 25.3712 27.107 25.0905L25.5823 23.5658C25.3016 23.2851 24.8465 23.2851 24.5658 23.5658C24.2851 23.8465 24.2851 24.3016 24.5658 24.5823L26.0905 26.107Z" fill="#FFED8C"/>
<path d="M20.5 25.25C20.897 25.25 21.2188 25.5718 21.2188 25.9688V28.125C21.2188 28.522 20.897 28.8438 20.5 28.8438C20.103 28.8438 19.7812 28.522 19.7812 28.125V25.9688C19.7812 25.5718 20.103 25.25 20.5 25.25Z" fill="#FFED8C"/>
<path d="M16.4343 24.5823C16.715 24.3016 16.715 23.8465 16.4343 23.5658C16.1536 23.2851 15.6985 23.2851 15.4178 23.5658L13.8931 25.0905C13.6124 25.3712 13.6124 25.8263 13.8931 26.107C14.1738 26.3877 14.6289 26.3877 14.9096 26.107L16.4343 24.5823Z" fill="#FFED8C"/>
<path d="M14.75 19.5C14.75 19.897 14.4282 20.2188 14.0312 20.2188H11.875C11.478 20.2188 11.1562 19.897 11.1562 19.5C11.1563 19.103 11.478 18.7812 11.875 18.7812H14.0312C14.4282 18.7812 14.75 19.103 14.75 19.5Z" fill="#FFED8C"/>
<path d="M15.4177 15.4341C15.6984 15.7148 16.1535 15.7148 16.4342 15.4341C16.7149 15.1534 16.7149 14.6983 16.4342 14.4176L14.9095 12.8929C14.6288 12.6122 14.1737 12.6122 13.893 12.8929C13.6123 13.1736 13.6123 13.6287 13.893 13.9094L15.4177 15.4341Z" fill="#FFED8C"/>
<g filter="url(#filter0_dd_4574_17064)">
<circle cx="59" cy="19" r="17" fill="#374151"/>
</g>
<path d="M54.1167 8.57622C56.5241 7.1863 59.2525 6.82855 61.8117 7.36126C61.6904 7.42319 61.5683 7.48829 61.4485 7.55745C57.4132 9.88721 56.0956 15.1555 58.502 19.3234C60.9095 23.4934 66.1316 24.9833 70.1649 22.6547C70.2847 22.5855 70.4021 22.5123 70.5164 22.4382C69.6981 24.9209 68.0241 27.1049 65.6167 28.4948C60.2933 31.5683 53.4041 29.5988 50.2292 24.0997C47.0511 18.5997 48.7933 11.6497 54.1167 8.57622ZM52.7774 17.2579C52.7008 17.3021 52.6774 17.4022 52.7219 17.4793C52.7676 17.5585 52.8668 17.5851 52.9414 17.542C53.018 17.4978 53.0414 17.3977 52.9969 17.3206C52.9523 17.2435 52.854 17.2137 52.7774 17.2579ZM62.0732 26.6608C62.1498 26.6166 62.1732 26.5165 62.1286 26.4394C62.083 26.3603 61.9838 26.3336 61.9092 26.3767C61.8326 26.4209 61.8092 26.521 61.8537 26.5981C61.8975 26.6784 61.9966 26.705 62.0732 26.6608ZM54.1125 12.8724C54.1891 12.8282 54.2124 12.7281 54.1679 12.651C54.1222 12.5719 54.0231 12.5453 53.9485 12.5883C53.8719 12.6326 53.8485 12.7326 53.893 12.8097C53.9356 12.888 54.0359 12.9166 54.1125 12.8724ZM57.4285 25.3138C57.505 25.2696 57.5284 25.1695 57.4839 25.0924C57.4382 25.0133 57.3391 24.9867 57.2645 25.0297C57.1879 25.074 57.1645 25.174 57.209 25.2511C57.2516 25.3294 57.3519 25.358 57.4285 25.3138ZM54.2587 22.1954L55.35 23.3781L54.8714 21.8416L56.0062 20.7644L54.5078 21.2074L53.4165 20.0247L53.8951 21.5611L52.7623 22.6372L54.2587 22.1954Z" fill="white"/>
<circle cx="63.5" cy="13.5" r="0.5" fill="#D9D9D9"/>
<circle cx="71" cy="18" r="1" fill="#D9D9D9"/>
<defs>
<filter id="filter0_dd_4574_17064" x="38" y="0" width="43" height="40" filterUnits="userSpaceOnUse" color-interpolation-filters="sRGB">
<feFlood flood-opacity="0" result="BackgroundImageFix"/>
<feColorMatrix in="SourceAlpha" type="matrix" values="0 0 0 0 0 0 0 0 0 0 0 0 0 0 0 0 0 0 127 0" result="hardAlpha"/>
<feOffset dx="-2" dy="1"/>
<feGaussianBlur stdDeviation="1"/>
<feColorMatrix type="matrix" values="0 0 0 0 0 0 0 0 0 0 0 0 0 0 0 0 0 0 0.06 0"/>
<feBlend mode="normal" in2="BackgroundImageFix" result="effect1_dropShadow_4574_17064"/>
<feColorMatrix in="SourceAlpha" type="matrix" values="0 0 0 0 0 0 0 0 0 0 0 0 0 0 0 0 0 0 127 0" result="hardAlpha"/>
<feOffset dx="2" dy="1"/>
<feGaussianBlur stdDeviation="1.5"/>
<feColorMatrix type="matrix" values="0 0 0 0 0 0 0 0 0 0 0 0 0 0 0 0 0 0 0.1 0"/>
<feBlend mode="normal" in2="effect1_dropShadow_4574_17064" result="effect2_dropShadow_4574_17064"/>
<feBlend mode="normal" in="SourceGraphic" in2="effect2_dropShadow_4574_17064" result="shape"/>
</filter>
</defs>
</svg>
