<svg width="41" height="92" viewBox="0 0 41 92" fill="none" xmlns="http://www.w3.org/2000/svg">
<g clip-path="url(#clip0_4574_17078)">
<rect width="38.3333" height="45" transform="translate(1 1)" fill="white"/>
<path d="M20.5807 14.6196C20.9403 14.6196 21.2318 14.9111 21.2318 15.2707V17.2238C21.2318 17.5834 20.9403 17.8748 20.5807 17.8748C20.2212 17.8748 19.9297 17.5834 19.9297 17.2238V15.2707C19.9297 14.9111 20.2212 14.6196 20.5807 14.6196Z" fill="#1F2937"/>
<path d="M16.6745 23.0832C16.6745 20.9258 18.4234 19.1769 20.5807 19.1769C22.7381 19.1769 24.487 20.9258 24.487 23.0832C24.487 25.2405 22.7381 26.9894 20.5807 26.9894C18.4234 26.9894 16.6745 25.2405 16.6745 23.0832Z" fill="#1F2937"/>
<path d="M26.5654 18.0192C26.8196 17.765 26.8196 17.3528 26.5654 17.0985C26.3111 16.8443 25.8989 16.8443 25.6447 17.0985L24.2636 18.4796C24.0094 18.7338 24.0094 19.146 24.2636 19.4003C24.5179 19.6545 24.9301 19.6545 25.1843 19.4003L26.5654 18.0192Z" fill="#1F2937"/>
<path d="M29.0443 23.0832C29.0443 23.4427 28.7528 23.7342 28.3932 23.7342H26.4401C26.0805 23.7342 25.7891 23.4427 25.7891 23.0832C25.7891 22.7236 26.0805 22.4321 26.4401 22.4321H28.3932C28.7528 22.4321 29.0443 22.7236 29.0443 23.0832Z" fill="#1F2937"/>
<path d="M25.6446 29.0678C25.8988 29.322 26.311 29.322 26.5653 29.0678C26.8195 28.8135 26.8195 28.4013 26.5653 28.147L25.1842 26.766C24.93 26.5117 24.5178 26.5117 24.2635 26.766C24.0093 27.0202 24.0093 27.4324 24.2635 27.6867L25.6446 29.0678Z" fill="#1F2937"/>
<path d="M20.5807 28.2915C20.9403 28.2915 21.2318 28.583 21.2318 28.9425V30.8957C21.2318 31.2552 20.9403 31.5467 20.5807 31.5467C20.2212 31.5467 19.9297 31.2552 19.9297 30.8957V28.9425C19.9297 28.583 20.2212 28.2915 20.5807 28.2915Z" fill="#1F2937"/>
<path d="M16.898 27.6867C17.1522 27.4324 17.1522 27.0202 16.898 26.766C16.6438 26.5117 16.2315 26.5117 15.9773 26.766L14.5962 28.147C14.342 28.4013 14.342 28.8135 14.5962 29.0678C14.8505 29.322 15.2627 29.322 15.5169 29.0678L16.898 27.6867Z" fill="#1F2937"/>
<path d="M15.3724 23.0832C15.3724 23.4427 15.0809 23.7342 14.7214 23.7342H12.7682C12.4087 23.7342 12.1172 23.4427 12.1172 23.0832C12.1172 22.7236 12.4087 22.4321 12.7682 22.4321H14.7214C15.0809 22.4321 15.3724 22.7236 15.3724 23.0832Z" fill="#1F2937"/>
<path d="M15.9772 19.4003C16.2314 19.6545 16.6437 19.6545 16.8979 19.4003C17.1522 19.146 17.1522 18.7338 16.8979 18.4796L15.5168 17.0985C15.2626 16.8443 14.8504 16.8443 14.5961 17.0985C14.3419 17.3528 14.3419 17.765 14.5961 18.0192L15.9772 19.4003Z" fill="#1F2937"/>
<line x1="1" y1="45.5833" x2="39.3333" y2="45.5833" stroke="#1F2937" stroke-width="0.833333"/>
<rect width="38.3333" height="45" transform="translate(1 46)" fill="white"/>
<path d="M18.9382 75.2415C18.2469 75.2415 17.6219 75.1136 17.0632 74.858C16.5045 74.5975 16.0618 74.2211 15.7351 73.7287C15.4131 73.2363 15.2521 72.6326 15.2521 71.9176C15.2521 71.3021 15.3705 70.7955 15.6072 70.3977C15.844 70 16.1636 69.6851 16.566 69.4531C16.9685 69.2211 17.4183 69.0459 17.9155 68.9276C18.4126 68.8092 18.9193 68.7192 19.4354 68.6577C20.0888 68.5819 20.6191 68.5204 21.0263 68.473C21.4335 68.4209 21.7294 68.3381 21.9141 68.2244C22.0987 68.1108 22.191 67.9261 22.191 67.6705V67.6207C22.191 67.0005 22.0159 66.5199 21.6655 66.179C21.3198 65.8381 20.8037 65.6676 20.1172 65.6676C19.4022 65.6676 18.8388 65.8262 18.4268 66.1435C18.0196 66.456 17.7379 66.804 17.5817 67.1875L15.5859 66.733C15.8227 66.0701 16.1683 65.535 16.6229 65.1278C17.0821 64.7159 17.6101 64.4176 18.2067 64.233C18.8033 64.0436 19.4306 63.9489 20.0888 63.9489C20.5244 63.9489 20.986 64.001 21.4737 64.1051C21.9661 64.2046 22.4254 64.3892 22.8516 64.6591C23.2824 64.929 23.6352 65.3149 23.9098 65.8168C24.1844 66.3139 24.3217 66.9602 24.3217 67.7557V75H22.2479V73.5085H22.1626C22.0253 73.7831 21.8194 74.053 21.5447 74.3182C21.2701 74.5833 20.9174 74.8035 20.4865 74.9787C20.0556 75.1539 19.5395 75.2415 18.9382 75.2415ZM19.3999 73.5369C19.987 73.5369 20.4889 73.4209 20.9055 73.1889C21.3269 72.9569 21.6465 72.6539 21.8643 72.2798C22.0869 71.901 22.1981 71.4962 22.1981 71.0653V69.6591C22.1224 69.7349 21.9756 69.8059 21.7578 69.8722C21.5447 69.9337 21.3009 69.9882 21.0263 70.0355C20.7517 70.0781 20.4841 70.1184 20.2237 70.1563C19.9633 70.1894 19.7455 70.2178 19.5703 70.2415C19.1584 70.2936 18.782 70.3812 18.441 70.5043C18.1049 70.6274 17.835 70.8049 17.6314 71.0369C17.4325 71.2642 17.3331 71.5672 17.3331 71.946C17.3331 72.4716 17.5272 72.8693 17.9155 73.1392C18.3037 73.4044 18.7985 73.5369 19.3999 73.5369Z" fill="black"/>
</g>
<rect x="0.583334" y="0.583334" width="39.1666" height="90.8333" rx="4.58333" stroke="#1F2937" stroke-width="0.833333"/>
<defs>
<clipPath id="clip0_4574_17078">
<rect x="1" y="1" width="38.3333" height="89.9999" rx="4.16666" fill="white"/>
</clipPath>
</defs>
</svg>
