<svg width="66" height="66" viewBox="0 0 66 66" fill="none" xmlns="http://www.w3.org/2000/svg">
<g filter="url(#filter0_dd_4574_17038)">
<rect x="3" y="2" width="60" height="60" rx="15" fill="#555555"/>
<path fill-rule="evenodd" clip-rule="evenodd" d="M29.8956 16.505C30.2091 16.8185 30.3023 17.2903 30.1316 17.6995C29.4835 19.2527 29.125 20.9581 29.125 22.7499C29.125 29.9987 35.0013 35.8749 42.25 35.8749C44.0419 35.8749 45.7472 35.5165 47.3004 34.8684C47.7096 34.6976 48.1814 34.7908 48.495 35.1044C48.8085 35.4179 48.9017 35.8897 48.731 36.299C46.4235 41.8288 40.9642 45.7187 34.5938 45.7187C26.1369 45.7187 19.2812 38.863 19.2812 30.4062C19.2812 24.0358 23.1711 18.5764 28.701 16.269C29.1102 16.0982 29.582 16.1914 29.8956 16.505Z" fill="white"/>
</g>
<defs>
<filter id="filter0_dd_4574_17038" x="0" y="0" width="66" height="66" filterUnits="userSpaceOnUse" color-interpolation-filters="sRGB">
<feFlood flood-opacity="0" result="BackgroundImageFix"/>
<feColorMatrix in="SourceAlpha" type="matrix" values="0 0 0 0 0 0 0 0 0 0 0 0 0 0 0 0 0 0 127 0" result="hardAlpha"/>
<feOffset dy="1"/>
<feGaussianBlur stdDeviation="1"/>
<feColorMatrix type="matrix" values="0 0 0 0 0 0 0 0 0 0 0 0 0 0 0 0 0 0 0.06 0"/>
<feBlend mode="normal" in2="BackgroundImageFix" result="effect1_dropShadow_4574_17038"/>
<feColorMatrix in="SourceAlpha" type="matrix" values="0 0 0 0 0 0 0 0 0 0 0 0 0 0 0 0 0 0 127 0" result="hardAlpha"/>
<feOffset dy="1"/>
<feGaussianBlur stdDeviation="1.5"/>
<feColorMatrix type="matrix" values="0 0 0 0 0 0 0 0 0 0 0 0 0 0 0 0 0 0 0.1 0"/>
<feBlend mode="normal" in2="effect1_dropShadow_4574_17038" result="effect2_dropShadow_4574_17038"/>
<feBlend mode="normal" in="SourceGraphic" in2="effect2_dropShadow_4574_17038" result="shape"/>
</filter>
</defs>
</svg>
