<svg width="41" height="92" viewBox="0 0 41 92" fill="none" xmlns="http://www.w3.org/2000/svg">
<g clip-path="url(#clip0_4574_17082)">
<rect width="38.3333" height="45" transform="translate(1 1)" fill="white"/>
<path fill-rule="evenodd" clip-rule="evenodd" d="M20.1694 17.4472C20.332 17.4472 20.4651 17.3141 20.4651 17.1515V14.6292C20.4651 14.4666 20.332 14.3335 20.1694 14.3335C20.0068 14.3335 19.8737 14.4666 19.8737 14.6292V17.1545C19.8737 17.3171 20.0068 17.4472 20.1694 17.4472ZM20.1637 18.1775C17.2245 18.1775 14.8411 20.5608 14.8411 23.5C14.8411 26.4393 17.2245 28.8226 20.1637 28.8226C23.1029 28.8226 25.4863 26.4393 25.4863 23.5C25.4863 20.5608 23.1029 18.1775 20.1637 18.1775ZM20.1637 19.656C18.0435 19.656 16.3196 21.3799 16.3196 23.5C16.3196 23.6627 16.1866 23.7957 16.0239 23.7957C15.8613 23.7957 15.7282 23.6627 15.7282 23.5C15.7282 21.0546 17.7183 19.0646 20.1637 19.0646C20.3263 19.0646 20.4594 19.1976 20.4594 19.3603C20.4594 19.5229 20.3263 19.656 20.1637 19.656ZM19.8737 29.8489C19.8737 29.6863 20.0068 29.5532 20.1694 29.5532C20.332 29.5532 20.4651 29.6833 20.4651 29.846V32.3712C20.4651 32.5338 20.332 32.6669 20.1694 32.6669C20.0068 32.6669 19.8737 32.5338 19.8737 32.3712V29.8489ZM16.7349 18.151C16.7911 18.2457 16.8887 18.2989 16.9921 18.2989C17.0424 18.2989 17.0927 18.2871 17.14 18.2604C17.2819 18.1776 17.3292 17.9973 17.2494 17.8553L15.9868 15.6701C15.904 15.5282 15.7236 15.4809 15.5817 15.5607C15.4397 15.6435 15.3924 15.8239 15.4723 15.9658L16.7349 18.151ZM23.1923 28.7398C23.3343 28.66 23.5147 28.7073 23.5974 28.8492L24.8601 31.0344C24.9399 31.1764 24.8926 31.3568 24.7507 31.4396C24.7034 31.4662 24.6531 31.478 24.6028 31.478C24.4993 31.478 24.4017 31.4248 24.3456 31.3301L23.0829 29.1449C23.0031 29.003 23.0504 28.8226 23.1923 28.7398ZM12.3395 19.322L14.5247 20.5846C14.572 20.6112 14.6223 20.6231 14.6725 20.6231C14.776 20.6231 14.8736 20.5698 14.9298 20.4752C15.0126 20.3333 14.9623 20.1529 14.8204 20.0701L12.6352 18.8075C12.4932 18.7247 12.3129 18.775 12.2301 18.9169C12.1502 19.0588 12.1975 19.2392 12.3395 19.322ZM25.8136 26.4157L27.9988 27.6783C28.1407 27.7611 28.188 27.9415 28.1082 28.0834C28.052 28.1781 27.9544 28.2313 27.8509 28.2313C27.8007 28.2313 27.7504 28.2195 27.7031 28.1929L25.5179 26.9302C25.3759 26.8474 25.3257 26.6671 25.4085 26.5251C25.4913 26.3832 25.6716 26.3329 25.8136 26.4157ZM14.1137 23.5C14.1137 23.3374 13.9806 23.2043 13.818 23.2043H11.2957C11.1331 23.2043 11 23.3374 11 23.5C11 23.6627 11.1331 23.7957 11.2957 23.7957H13.821C13.9836 23.7957 14.1137 23.6627 14.1137 23.5ZM26.5105 23.2043H29.0358C29.1984 23.2043 29.3315 23.3374 29.3315 23.5C29.3315 23.6627 29.1984 23.7957 29.0358 23.7957H26.5105C26.3479 23.7957 26.2148 23.6627 26.2148 23.5C26.2148 23.3374 26.3479 23.2043 26.5105 23.2043ZM14.9298 26.525C14.847 26.3831 14.6666 26.3358 14.5247 26.4156L12.3395 27.6782C12.1975 27.761 12.1502 27.9414 12.2301 28.0834C12.2863 28.178 12.3838 28.2312 12.4873 28.2312C12.5376 28.2312 12.5879 28.2194 12.6352 28.1928L14.8204 26.9301C14.9623 26.8473 15.0096 26.667 14.9298 26.525ZM25.6644 20.623C25.5609 20.623 25.4633 20.5697 25.4071 20.4751C25.3273 20.3332 25.3746 20.1528 25.5166 20.07L27.7018 18.8074C27.8437 18.7275 28.0241 18.7749 28.1069 18.9168C28.1867 19.0587 28.1394 19.2391 27.9975 19.3219L25.8123 20.5845C25.7649 20.6111 25.7147 20.623 25.6644 20.623ZM17.1413 28.7399C16.9994 28.6571 16.819 28.7074 16.7362 28.8493L15.4736 31.0345C15.3908 31.1765 15.441 31.3568 15.583 31.4396C15.6303 31.4663 15.6806 31.4781 15.7308 31.4781C15.8343 31.4781 15.9319 31.4249 15.9881 31.3302L17.2507 29.145C17.3306 29.0031 17.2832 28.8227 17.1413 28.7399ZM23.3402 18.2986C23.2899 18.2986 23.2397 18.2867 23.1923 18.2601C23.0504 18.1773 23.0031 17.997 23.0829 17.855L24.3456 15.6698C24.4284 15.5279 24.6087 15.4776 24.7507 15.5604C24.8926 15.6432 24.9429 15.8236 24.8601 15.9655L23.5974 18.1507C23.5413 18.2453 23.4437 18.2986 23.3402 18.2986ZM18.236 17.4473C18.2714 17.5803 18.3897 17.6661 18.5198 17.6661C18.5464 17.6661 18.5701 17.6631 18.5967 17.6572C18.7534 17.6158 18.848 17.4532 18.8067 17.2964L18.3838 15.7145C18.3424 15.5577 18.1798 15.4631 18.0231 15.5045C17.8663 15.5459 17.7717 15.7085 17.8131 15.8653L18.236 17.4473ZM21.734 29.3461C21.8907 29.3047 22.0533 29.3993 22.0947 29.556L22.5176 31.138C22.559 31.2947 22.4644 31.4573 22.3076 31.4987C22.281 31.5047 22.2574 31.5076 22.2308 31.5076C22.1007 31.5076 21.9824 31.4219 21.9469 31.2888L21.524 29.7068C21.4826 29.5501 21.5773 29.3875 21.734 29.3461ZM15.4689 19.2215C15.528 19.2806 15.6019 19.3072 15.6788 19.3072C15.7557 19.3072 15.8296 19.2776 15.8888 19.2215C16.0041 19.1061 16.0041 18.9198 15.8888 18.8045L14.7326 17.6483C14.6173 17.533 14.431 17.533 14.3157 17.6483C14.2003 17.7637 14.2003 17.9499 14.3157 18.0653L15.4689 19.2215ZM24.4459 27.7789C24.5612 27.6636 24.7475 27.6636 24.8628 27.7789L26.0219 28.9351C26.1372 29.0504 26.1372 29.2367 26.0219 29.3521C25.9628 29.4082 25.8889 29.4378 25.812 29.4378C25.7351 29.4378 25.6612 29.4112 25.602 29.3521L24.4459 28.1959C24.3305 28.0806 24.3305 27.8943 24.4459 27.7789ZM12.3785 21.7199L13.9605 22.1428C13.9871 22.1487 14.0108 22.1517 14.0374 22.1517C14.1675 22.1517 14.2858 22.0659 14.3213 21.9328C14.3627 21.7761 14.271 21.6135 14.1113 21.5721L12.5293 21.1492C12.3726 21.1078 12.21 21.1995 12.1686 21.3592C12.1272 21.5159 12.2218 21.6756 12.3785 21.7199ZM26.3772 24.8573L27.9562 25.2802C28.1129 25.3245 28.2075 25.4842 28.1661 25.6409C28.1336 25.774 28.0124 25.8597 27.8823 25.8597C27.8557 25.8597 27.832 25.8568 27.8054 25.8509L26.2264 25.428C26.0667 25.3866 25.975 25.224 26.0164 25.0673C26.0578 24.9076 26.2205 24.8159 26.3772 24.8573ZM12.4525 25.8628C12.4791 25.8628 12.5027 25.8598 12.5293 25.8539L14.1113 25.4311C14.268 25.3897 14.3627 25.2271 14.3213 25.0703C14.2799 24.9136 14.1172 24.819 13.9605 24.8604L12.3785 25.2832C12.2218 25.3246 12.1272 25.4873 12.1686 25.644C12.2011 25.7741 12.3223 25.8628 12.4525 25.8628ZM26.2197 21.5723L27.7987 21.1494C27.9554 21.1051 28.118 21.1997 28.1594 21.3594C28.2008 21.5161 28.1062 21.6787 27.9495 21.7201L26.3705 22.143C26.3439 22.1489 26.3202 22.1519 26.2936 22.1519C26.1635 22.1519 26.0452 22.0661 26.0097 21.933C25.9683 21.7763 26.0629 21.6137 26.2197 21.5723ZM15.8888 27.7789C15.7734 27.6636 15.5872 27.6636 15.4718 27.7789L14.3157 28.9351C14.2003 29.0504 14.2003 29.2367 14.3157 29.3521C14.3748 29.4112 14.4487 29.4378 14.5256 29.4378C14.6025 29.4378 14.6764 29.4082 14.7355 29.3521L15.8917 28.1959C16.0041 28.0806 16.0041 27.8943 15.8888 27.7789ZM24.6554 19.3072C24.5786 19.3072 24.5046 19.2806 24.4455 19.2215C24.3302 19.1061 24.3302 18.9198 24.4484 18.8045L25.6046 17.6483C25.7199 17.533 25.9062 17.533 26.0216 17.6483C26.1369 17.7637 26.1369 17.9499 26.0216 18.0653L24.8654 19.2215C24.8062 19.2776 24.7323 19.3072 24.6554 19.3072ZM18.5969 29.3458C18.4402 29.3044 18.2775 29.3961 18.2361 29.5558L17.8133 31.1378C17.7719 31.2945 17.8636 31.4571 18.0232 31.4985C18.0499 31.5044 18.0735 31.5074 18.1001 31.5074C18.2302 31.5074 18.3515 31.4216 18.384 31.2886L18.8068 29.7066C18.8482 29.5499 18.7566 29.3872 18.5969 29.3458ZM21.8111 17.663C21.7844 17.663 21.7608 17.66 21.7342 17.6541C21.5745 17.6127 21.4828 17.4501 21.5242 17.2934L21.9471 15.7114C21.9885 15.5517 22.1511 15.4601 22.3078 15.5015C22.4675 15.5429 22.5592 15.7055 22.5178 15.8622L22.0949 17.4442C22.0594 17.5773 21.9412 17.663 21.8111 17.663Z" fill="black"/>
<line x1="1" y1="45.5833" x2="39.3333" y2="45.5833" stroke="#1F2937" stroke-width="0.833333"/>
<rect width="38.3333" height="45" transform="translate(1 46)" fill="white"/>
<path d="M13.7694 73.9542H11.8281L16.1901 61.833H18.303L22.665 73.9542H20.7237L17.2969 64.0347H17.2022L13.7694 73.9542ZM14.0949 69.2075H20.3923V70.7464H14.0949V69.2075Z" fill="black"/>
<path fill-rule="evenodd" clip-rule="evenodd" d="M28.4459 68.7773L26.5801 65.9995L24.7422 68.7773H26.1289V71.5548H24.7422L26.5801 74.3326L28.4459 71.5548H27.0548V68.7773H28.4459Z" fill="black"/>
</g>
<rect x="0.583334" y="0.583334" width="39.1666" height="90.8333" rx="4.58333" stroke="#1F2937" stroke-width="0.833333"/>
<defs>
<clipPath id="clip0_4574_17082">
<rect x="1" y="1" width="38.3333" height="89.9999" rx="4.16666" fill="white"/>
</clipPath>
</defs>
</svg>
