<svg width="41" height="92" viewBox="0 0 41 92" fill="none" xmlns="http://www.w3.org/2000/svg">
<g clip-path="url(#clip0_4574_17080)">
<rect width="38.3333" height="45" transform="translate(1 1)" fill="white"/>
<path d="M20.5859 15.271V17.2241M26.1102 17.5592L24.7291 18.9403M28.3984 23.0835H26.4453M26.1102 28.6078L24.7291 27.2267M20.5859 28.9429V30.896M16.4427 27.2267L15.0617 28.6078M14.7266 23.0835H12.7734M16.4427 18.9403L15.0617 17.5592M23.8411 23.0835C23.8411 24.8813 22.3837 26.3387 20.5859 26.3387C18.7881 26.3387 17.3307 24.8813 17.3307 23.0835C17.3307 21.2857 18.7881 19.8283 20.5859 19.8283C22.3837 19.8283 23.8411 21.2857 23.8411 23.0835Z" stroke="#0F172A" stroke-width="1.25" stroke-linecap="round" stroke-linejoin="round"/>
<line x1="1" y1="45.5833" x2="39.3333" y2="45.5833" stroke="#1F2937" stroke-width="0.833333"/>
<rect width="38.3333" height="45" transform="translate(1 46)" fill="white"/>
<path d="M12.5698 63.9531V62.3788H21.9508V63.9531H18.1688V74.5H16.3459V63.9531H12.5698ZM28.1253 65.4091V66.8296H23.1596V65.4091H28.1253ZM24.4913 63.2311H26.2609V71.8307C26.2609 72.174 26.3122 72.4325 26.4148 72.6061C26.5174 72.7757 26.6496 72.8921 26.8114 72.9553C26.9771 73.0144 27.1566 73.044 27.35 73.044C27.492 73.044 27.6163 73.0342 27.7228 73.0144C27.8294 72.9947 27.9122 72.9789 27.9714 72.9671L28.291 74.429C28.1884 74.4684 28.0424 74.5079 27.853 74.5473C27.6636 74.5908 27.4269 74.6144 27.1428 74.6184C26.6772 74.6263 26.2432 74.5434 25.8407 74.3698C25.4383 74.1962 25.1127 73.9279 24.8642 73.5649C24.6156 73.2019 24.4913 72.7461 24.4913 72.1977V63.2311Z" fill="black"/>
</g>
<rect x="0.583334" y="0.583334" width="39.1666" height="90.8333" rx="4.58333" stroke="#1F2937" stroke-width="0.833333"/>
<defs>
<clipPath id="clip0_4574_17080">
<rect x="1" y="1" width="38.3333" height="89.9999" rx="4.16666" fill="white"/>
</clipPath>
</defs>
</svg>
